<svg id="svg" xmlns="http://www.w3.org/2000/svg" width="20" height="20" viewBox="0 0 20 20"><path d="m1495.91 6424.65-2.55 5.42a.738.738 0 0 1-.67.43h-10.28l1.03 2.95h8.3a.731.731 0 0 1 .33.08 2.271 2.271 0 1 1-2.84 2.19 2.444 2.444 0 0 1 .14-.77h-3.77a2.2 2.2 0 0 1 .15.77 2.26 2.26 0 1 1-3.7-1.74l-4.36-12.48h-.94a.75.75 0 0 1 0-1.5h1.47a.755.755 0 0 1 .71.5l2.97 8.51c.02 0 .04-.01.07-.01h10.24l2.35-4.99a.734.734 0 0 1 .99-.36.765.765 0 0 1 .36 1Zm-5.19 11.07a.77.77 0 1 0 .77-.77.77.77 0 0 0-.77.77Zm-7.23.77a.77.77 0 0 0 0-1.54.77.77 0 1 0 0 1.54Z" style="fill:#1a1a1a;fill-rule:evenodd" transform="translate(-1476 -6419)"/></svg>