<?xml version="1.0" encoding="utf-8"?>
<!-- Generator: Adobe Illustrator 19.2.1, SVG Export Plug-In . SVG Version: 6.00 Build 0)  -->
<svg version="1.1" id="layer" xmlns="http://www.w3.org/2000/svg" xmlns:xlink="http://www.w3.org/1999/xlink" x="0px" y="0px"
	 viewBox="0 0 652 652" style="enable-background:new 0 0 652 652;" xml:space="preserve">
<style type="text/css">
	.st0{fill:url(#SVGID_1_);}
	.st1{fill:#1C394F;}
</style>
<linearGradient id="SVGID_1_" gradientUnits="userSpaceOnUse" x1="23.9557" y1="270.5768" x2="145.5421" y2="392.1824" gradientTransform="matrix(1 0 0 -1 0 652)">
	<stop  offset="0" style="stop-color:#197FC4"/>
	<stop  offset="1" style="stop-color:#08285A"/>
</linearGradient>
<path class="st0" d="M147.9,265.2c0,4-3.2,7.2-7.2,7.1c-1.9,0-3.7-0.8-5.1-2.1l0,0C107.7,242.1,62.3,242,34.2,270c0,0,0,0,0,0l0,0
	c-2.8,2.8-7.3,2.9-10.1,0.1c-1.4-1.4-2.2-3.3-2.2-5.2c0-1.9,0.8-3.8,2.2-5.1l0,0c33.7-33.5,88.1-33.4,121.6,0.3l0,0
	C147.1,261.4,147.9,263.2,147.9,265.2z M145.4,371.2c-2.8-2.6-7.2-2.5-9.9,0.2l0,0c-28,28-73.3,27.9-101.3,0c0,0,0,0-0.1-0.1l0,0
	c-2.8-2.8-7.3-2.9-10.1-0.1c-2.8,2.8-2.9,7.3-0.1,10.1l0,0l0,0c33.6,33.5,87.9,33.5,121.5,0l0,0l0,0c2.7-2.9,2.7-7.4-0.2-10.1
	c0,0-0.1-0.1-0.1-0.1L145.4,371.2z"/>
<path class="st1" d="M582.5,306.4h39.4v-14.3h-39.4c-9.9,0.3-17.7,8.6-17.3,18.5c0.3,9.4,7.9,17,17.3,17.3H604c2,0,3.6,1.6,3.6,3.6
	c0,2-1.6,3.6-3.6,3.6h-39.4v14.3H604c9.9,0,17.9-8,17.9-17.9c0-9.9-8-17.9-17.9-17.9h-21.5c-2-0.1-3.5-1.9-3.3-3.9
	C579.3,308,580.7,306.6,582.5,306.4z M288.4,320.8c0-15.8-12.8-28.7-28.7-28.7l0,0h-2.9c-15.8,0-28.7,12.8-28.7,28.7
	c0,15.8,12.8,28.7,28.7,28.7h2.9C275.6,349.4,288.4,336.6,288.4,320.8z M259.8,335.1h-2.9c-7.9,0-14.3-6.4-14.3-14.3
	s6.4-14.3,14.3-14.3h2.9c7.9,0,14.3,6.4,14.3,14.3S267.7,335.1,259.8,335.1L259.8,335.1z M202.4,335.1h-28.7
	c-7.9,0-14.3-6.4-14.3-14.3s6.4-14.3,14.3-14.3h28.7v-14.3h-28.7c-15.8,0-28.7,12.8-28.7,28.7c0,15.8,12.8,28.7,28.7,28.7
	c0,0,0,0,0,0h28.7V335.1z M109.2,335.1H80.6c-7.9,0-14.3-6.4-14.3-14.3s6.4-14.3,14.3-14.3h28.7l10-14.3H80.6
	c-15.8,0-28.7,12.8-28.7,28.7c0,15.8,12.8,28.7,28.7,28.7c0,0,0,0,0,0h38.7L109.2,335.1z M106.4,313.7H84.9c-4,0.2-7,3.6-6.8,7.5
	c0.2,3.7,3.1,6.6,6.8,6.8h21.5c4-0.2,7-3.6,6.8-7.5C113,316.8,110,313.8,106.4,313.7z M538.8,335.1h-28.7c-7.9,0-14.3-6.4-14.3-14.3
	s6.4-14.3,14.3-14.3h28.7v-14.3h-28.7c-15.8,0-28.7,12.8-28.7,28.7c0,15.8,12.8,28.7,28.7,28.7c0,0,0,0,0,0h28.7V335.1z
	 M348.6,320.5l-5.8,16l-5.8-16l-10.4-28.4h-15.3l17.1,47.1l0.2,0.6c3,7.7,11.7,11.6,19.5,8.6c3.8-1.5,6.9-4.5,8.5-8.3l0.5-1.2
	l17-46.8h-15.3L348.6,320.5z M421.3,321l5.8-16l5.8,16l10.5,28.4h15.3l-17.2-47.1l-0.2-0.6c-2.3-5.8-7.8-9.6-14-9.6
	c-1.5,0-3,0.2-4.5,0.7c-4.3,1.3-7.7,4.5-9.4,8.7l-0.4,1.2l-17.1,46.8h15.3L421.3,321z"/>
</svg>
