<svg id="Layer_1" enable-background="new 0 0 90 90" height="90" viewBox="0 0 90 90" width="90" xmlns="http://www.w3.org/2000/svg"><path d="m81.648 22.514h-60.459l8.538 31.867h36.009l6.459-3.725z" fill="#d2daef"/><g fill="#2e4456"><path d="m63.002 73.294c1.761 0 3.183 1.426 3.183 3.188 0 1.761-1.427 3.187-3.183 3.187-1.76 0-3.188-1.426-3.188-3.187s1.428-3.188 3.188-3.188zm0-3.781c-3.854 0-6.974 3.12-6.974 6.969s3.125 6.975 6.974 6.975c3.85 0 6.969-3.126 6.969-6.975s-3.119-6.969-6.969-6.969z"/><path d="m40.258 73.294c1.76 0 3.182 1.426 3.182 3.188 0 1.761-1.427 3.187-3.182 3.187-1.761 0-3.188-1.426-3.188-3.187s1.427-3.188 3.188-3.188zm0-3.781c-3.854 0-6.975 3.12-6.975 6.969s3.125 6.975 6.975 6.975c3.849 0 6.969-3.126 6.969-6.975s-3.121-6.969-6.969-6.969z"/><path d="m9.143 5.018c-.063-.005-.125 0-.192.005-1.88.13-2.427 2.635-.776 3.542l7.475 4.229c.672.38 1.161 1.011 1.369 1.755l12.438 44.495c1.203 4.296 5.141 7.286 9.6 7.286h31.273c2.521 0 2.521-3.782 0-3.782h-31.275c-2.781 0-5.203-1.837-5.953-4.515l-.6-2.146h32.771c4.713 0 8.88-3.094 10.244-7.599l4.256-14.001 3.172-10.45c.734-2.41-2.881-3.511-3.615-1.098l-3.172 10.454-4.255 13.996c-.886 2.927-3.567 4.917-6.63 4.917h-33.828l-10.781-38.577c-.475-1.704-1.615-3.156-3.156-4.027l-7.464-4.224c-.276-.161-.583-.25-.901-.26z"/></g><path d="m67.606 25.326c0 8.97-7.276 16.247-16.245 16.247-8.974 0-16.244-7.277-16.244-16.247 0-8.974 7.271-16.246 16.244-16.246 8.969.001 16.245 7.272 16.245 16.246z" fill="#88c1e9"/><path d="m51.361 11.029c7.917 0 14.292 6.381 14.292 14.297 0 7.923-6.375 14.293-14.292 14.293-7.916 0-14.291-6.37-14.291-14.293 0-7.916 6.375-14.297 14.291-14.297zm0-3.782c-9.963 0-18.072 8.121-18.072 18.079 0 9.965 8.109 18.075 18.072 18.075 9.959 0 18.068-8.11 18.068-18.075.001-9.958-8.109-18.079-18.068-18.079z" fill="#2e4456"/><path d="m45.361 17.431c-1.697 0-2.536 2.066-1.313 3.25l4.641 4.64-4.641 4.637c-.771.734-.786 1.958-.036 2.708.75.756 1.974.74 2.708-.036l4.641-4.636 4.636 4.636c.734.776 1.958.792 2.708.036.756-.75.74-1.974-.036-2.708l-4.636-4.637 4.636-4.64c1.245-1.203.359-3.303-1.37-3.25-.494.014-.958.223-1.302.578l-4.636 4.642-4.641-4.642c-.359-.37-.848-.578-1.359-.578z" fill="#2e4456"/></svg>