<svg id="Blue" viewBox="0 0 3000 3000" xmlns="http://www.w3.org/2000/svg"><g fill="#bababa"><path d="m225 1929.89v-.36c-.02.06-.04.12-.05.18-.02-.06-.04-.12-.05-.18v.36c-4.71 17.09-15.6 29.31-32.67 36.66 17.07 7.35 27.96 19.57 32.67 36.66v.36c.02-.06.04-.12.05-.18.02.06.04.12.05.18v-.36c4.71-17.09 15.6-29.31 32.67-36.66-17.07-7.35-27.96-19.57-32.67-36.66z"/><path d="m460.94 362.17v-.36c-.02.06-.04.12-.05.18-.02-.06-.04-.12-.05-.18v.36c-4.71 17.09-15.6 29.31-32.67 36.66 17.07 7.35 27.96 19.57 32.67 36.66v.36c.02-.06.04-.12.05-.18.02.06.04.12.05.18v-.36c4.71-17.09 15.6-29.31 32.67-36.66-17.07-7.35-27.96-19.57-32.67-36.66z"/><path d="m2568 1929.89v-.36c-.02.06-.04.12-.05.18-.02-.06-.04-.12-.05-.18v.36c-4.71 17.09-15.6 29.31-32.67 36.66 17.07 7.35 27.96 19.57 32.67 36.66v.36c.02-.06.04-.12.05-.18.02.06.04.12.05.18v-.36c4.71-17.09 15.6-29.31 32.67-36.66-17.07-7.35-27.96-19.57-32.67-36.66z"/><path d="m2501.05 800.32v-.36c-.02.06-.04.12-.05.18-.02-.06-.04-.12-.05-.18v.36c-4.71 17.09-15.6 29.31-32.67 36.66 17.07 7.35 27.96 19.57 32.67 36.66v.36c.02-.06.04-.12.05-.18.02.06.04.12.05.18v-.36c4.71-17.09 15.6-29.31 32.67-36.66-17.07-7.35-27.96-19.57-32.67-36.66z"/><path d="m2167.94 331.12v-.36c-.02.06-.04.12-.05.18-.02-.06-.04-.12-.05-.18v.36c-4.71 17.09-15.6 29.31-32.67 36.66 17.07 7.35 27.96 19.57 32.67 36.66v.36c.02-.06.04-.12.05-.18.02.06.04.12.05.18v-.36c4.71-17.09 15.6-29.31 32.67-36.66-17.07-7.35-27.96-19.57-32.67-36.66z"/><path d="m735.29 512.62v-.73c-.03.13-.07.24-.1.37-.03-.13-.07-.24-.1-.37v.73c-9.42 34.17-31.2 58.62-65.34 73.32 34.14 14.7 55.91 39.15 65.34 73.32v.73c.03-.13.07-.24.1-.37.03.13.07.24.1.37v-.73c9.42-34.17 31.2-58.62 65.34-73.32-34.14-14.7-55.91-39.15-65.34-73.32z"/><path d="m2218.26 2173.49v-.73c-.03.13-.07.24-.1.37-.03-.13-.07-.24-.1-.37v.73c-9.42 34.17-31.2 58.62-65.34 73.32 34.14 14.7 55.91 39.15 65.34 73.32v.73c.03-.13.07-.24.1-.37.03.13.07.24.1.37v-.73c9.42-34.17 31.2-58.62 65.34-73.32-34.14-14.7-55.91-39.15-65.34-73.32z"/><path d="m2600.77 331.49v-.73c-.03.13-.07.24-.1.37-.03-.13-.07-.24-.1-.37v.73c-9.42 34.17-31.2 58.62-65.34 73.32 34.14 14.7 55.91 39.15 65.34 73.32v.73c.03-.13.07-.24.1-.37.03.13.07.24.1.37v-.73c9.42-34.17 31.2-58.62 65.34-73.32-34.14-14.7-55.91-39.15-65.34-73.32z"/></g><g><g><path d="m1168.37 1637.03s-198.27-289.14-282.66-365.48c-84.55-76.49-395.6-226.92-395.6-226.92l-108.97 224.63s239.92 190.05 297.61 272.89c83.43 119.81 163.75 355.84 329.19 417.49 165.43 61.64 310.23 35.09 445.68-94.18s266.66-287 266.66-287c-43.67-244.7-264.02-319.08-553.67-293.69 0 0-64.16 62.02-135.19 161.38" fill="#fff"/><path d="m1169.57 1996.43c-51.81 0-105.82-10.65-163.39-32.11-54.76-20.4-105.04-61.22-153.7-124.78-42.24-55.17-78.01-120.64-109.58-178.4-23.62-43.22-45.92-84.04-68.27-116.13-56.61-81.29-294.21-269.93-296.61-271.83-1.84-1.46-2.42-3.99-1.39-6.1l108.97-224.63c1.2-2.48 4.19-3.52 6.68-2.32 12.73 6.16 312.66 151.62 396.78 227.71 35.51 32.12 90.31 100.6 142.31 169.79 68.89-95.36 131.12-155.85 131.75-156.46.82-.8 1.9-1.29 3.04-1.39 154.01-13.5 279.05 1.99 371.67 46.03 103.28 49.11 166.32 133.82 187.37 251.77.26 1.45-.14 2.94-1.08 4.08-1.31 1.58-132.94 159.43-267.05 287.42-33.9 32.35-69.07 58.82-104.53 78.66-35.31 19.77-72.16 33.66-109.52 41.3-24.07 4.92-48.51 7.39-73.45 7.39zm-782.19-728.59c29.64 23.61 240.92 193.13 295.46 271.45 22.65 32.53 45.09 73.59 68.84 117.05 31.39 57.45 66.97 122.55 108.74 177.12 47.49 62.02 96.31 101.76 149.25 121.49 83.47 31.1 159.15 39.05 231.34 24.29 73.76-15.08 142.17-53.48 209.15-117.4 126-120.25 249.84-266.98 264.77-284.79-10.61-57.7-31.75-107.56-62.84-148.24-29.93-39.17-69.83-70.78-118.56-93.96-90.63-43.1-213.33-58.32-364.71-45.25-9.19 9.1-67.49 67.85-131.17 156.42 68.37 91.43 130.3 181.57 134.84 188.19 1.56 2.28.98 5.39-1.3 6.95s-5.39.98-6.95-1.3c-1.98-2.89-198.9-289.52-281.9-364.6-77.54-70.15-351.41-205.12-389.93-223.94z"/></g><g><path d="m1168.16 948.38 338.51 50.69-202.37 238.92s-318.46-47.99-373.14-103.37c-54.83-55.54-68.88-151.62-32.12-221.85 43.5-83.11 144.63-211.01 144.63-211.01l178.41 68.23s-60.68 230.54-100.79 284.22" fill="#fff"/><path d="m1304.3 1242.99c-.25 0-.5-.02-.75-.06-13.07-1.97-320.74-48.88-375.95-104.8-27.28-27.63-45.67-66.06-51.79-108.21-6.12-42.17.55-84.61 18.8-119.48 43.22-82.57 144.12-210.51 145.14-211.8 1.35-1.71 3.66-2.35 5.71-1.57l178.41 68.23c2.38.91 3.7 3.47 3.05 5.94-.15.58-15.43 58.48-35.42 122.2-5.76 18.37-11.31 35.33-16.64 50.87l332.55 49.8c1.79.27 3.3 1.49 3.94 3.18.64 1.7.31 3.61-.86 4.99l-202.37 238.92c-.96 1.13-2.36 1.77-3.81 1.77zm-258.97-535.25c-15.19 19.44-102.67 132.47-141.86 207.34-17.28 33.02-23.59 73.29-17.77 113.4 5.82 40.05 23.22 76.5 49.02 102.62 50.24 50.89 336.31 96.65 367.57 101.51l194.76-229.93-325.52-48.75c-18.16 51.79-33.65 86.42-46.23 103.26-1.65 2.21-4.79 2.67-7 1.01-2.21-1.65-2.67-4.79-1.01-7 36.08-48.28 90.23-246.27 98.81-278.17l-170.76-65.3z"/></g><g><ellipse cx="1812.14" cy="775.06" fill="#fff" rx="303.8" ry="320.37" transform="matrix(.134 -.991 .991 .134 801.91 2467.4)"/><path d="m1817.32 1084.22c-15.39 0-30.9-1.04-46.44-3.13-86.08-11.61-162.73-54.32-215.84-120.27-53.17-66.03-76.38-147.44-65.35-229.23s54.97-154.15 123.72-203.74c68.68-49.53 153.91-70.42 239.99-58.81s162.74 54.32 215.84 120.27c53.17 66.03 76.38 147.44 65.35 229.23s-54.97 154.15-123.72 203.74c-56.28 40.59-123.68 61.95-193.55 61.95zm-10.35-608.31c-67.79 0-133.14 20.7-187.71 60.06-66.51 47.97-109.01 117.92-119.66 196.97-10.66 79.05 11.8 157.75 63.23 221.62 51.49 63.95 125.86 105.37 209.39 116.63s166.21-8.99 232.8-57.01c66.51-47.97 109.01-117.92 119.66-196.97l4.96.67-4.96-.67c10.66-79.05-11.8-157.75-63.23-221.62-51.49-63.95-125.86-105.37-209.39-116.63-15.09-2.03-30.15-3.04-45.09-3.04z"/></g><g><path d="m1494.64 732.26c-22.19 164.57 99.04 317.06 271.54 343.09 109.74-37.65 186.91-134.25 224.88-269.66 27.02-96.39 22.94-206.8 5.19-276.94-41.25-28.15-89.98-47.53-143.52-54.75-175.35-23.64-335.67 91.99-358.09 258.27z" fill="#393f4f"/><path d="m1766.18 1080.34c-.25 0-.5-.02-.75-.06-84.75-12.79-160.03-55.91-211.95-121.43-52.05-65.67-74.7-146.38-63.8-227.27l4.96.67-4.96-.67c11.03-81.79 54.97-154.15 123.72-203.74 68.68-49.53 153.91-70.42 239.99-58.81 52.36 7.06 102.73 26.28 145.67 55.57 1.01.69 1.73 1.72 2.03 2.9 9.39 37.09 14.48 83.21 14.35 129.87-.15 52.77-6.92 104.52-19.57 149.65-19.29 68.82-48.39 127.13-86.48 173.32-39.03 47.32-86.66 80.87-141.59 99.72-.52.18-1.07.27-1.62.27zm40.79-604.44c-67.79 0-133.14 20.7-187.71 60.06-66.51 47.97-109.01 117.92-119.66 196.97-10.54 78.17 11.38 156.2 61.73 219.72 50.1 63.21 122.65 104.93 204.39 117.57 52.66-18.31 98.4-50.68 135.96-96.22 37.2-45.1 65.65-102.18 84.57-169.66 12.41-44.27 19.05-95.1 19.2-146.98.13-45.08-4.69-89.57-13.59-125.55-41.31-27.83-89.6-46.09-139.8-52.86-15.09-2.03-30.15-3.04-45.09-3.04z"/></g><g><path d="m1141.8 1279.93c74.64-147.83 195.2-262.38 347.98-292.01 150.19 3.65 262.05 40.83 397.06 103.75 190.45-51.19 414.94 6.1 646.88 87.14l-70.55 155.18c-176.45-40.44-369.35-21.97-553.53 75.59l-214.5 233.31c-125.58-192.92-306.63-318.06-553.34-362.98z" fill="#fff"/><path d="m1695.14 1647.9c-.14 0-.28 0-.42-.02-1.54-.13-2.93-.96-3.77-2.25-63.04-96.84-140.36-176.09-229.83-235.56-92.03-61.17-199.77-103.3-320.22-125.23-1.55-.28-2.88-1.28-3.58-2.69s-.7-3.07.01-4.48c38.92-77.09 88-141.64 145.87-191.85 61.98-53.78 131.16-88.37 205.62-102.81.35-.07.71-.1 1.07-.09 153.49 3.73 266.02 42.33 397.4 103.45 88.62-23.49 189.47-25.34 308.24-5.65 95.54 15.84 200.35 44.63 339.83 93.37 1.33.46 2.4 1.46 2.95 2.75s.54 2.76-.05 4.03l-70.55 155.18c-.98 2.16-3.35 3.34-5.67 2.8-186.13-42.66-376.07-16.82-549.31 74.73l-213.92 232.68c-.95 1.03-2.29 1.62-3.68 1.62zm-545.84-371.67c119.13 22.5 225.88 64.71 317.36 125.52 88.94 59.11 166.01 137.5 229.14 233.05l210.16-228.59c.38-.42.84-.77 1.34-1.03 174.37-92.36 365.5-118.94 553-76.95l66.6-146.49c-136.35-47.45-239.23-75.6-333-91.15-118.11-19.58-218.13-17.64-305.77 5.91-1.14.31-2.34.2-3.41-.3-130.77-60.95-242.41-99.49-394.53-103.27-72.51 14.16-139.95 47.95-200.44 100.44-55.39 48.06-102.63 109.56-140.46 182.86z"/></g><path d="m1909.64 1414.59c-1.26 0-2.52-.47-3.5-1.43-24.51-23.96-42.66-50.72-53.94-79.53-9.04-23.09-13.71-47.52-13.88-72.61-.28-42.73 12.48-72.25 13.02-73.48 1.11-2.53 4.06-3.68 6.59-2.57s3.68 4.06 2.57 6.58c-.12.29-12.53 29.14-12.17 69.84.21 23.8 4.68 46.96 13.29 68.85 10.77 27.38 28.1 52.87 51.51 75.76 1.97 1.93 2.01 5.1.08 7.07-.98 1-2.28 1.5-3.58 1.5z"/><g><path d="m2047.05 836.92c3.39-25.14-5.59-49.08-22.25-65.72l1.57-11.62s-41.65-9.87-46.29-10.5c-42.75-5.76-82.08 24.22-87.84 66.97s24.52 80.18 66.97 87.84c11.68 2.11 46.29 10.5 46.29 10.5l2.69-19.98c20.47-11.64 35.47-32.35 38.86-57.49z" fill="#fff"/><path d="m2005.5 919.39c-.39 0-.79-.05-1.18-.14-.34-.08-34.6-8.38-46-10.44-21.98-3.97-41.38-15.55-54.63-32.62-13.52-17.42-19.35-39.01-16.41-60.81 6.12-45.41 48.05-77.38 93.47-71.26 4.75.64 42.49 9.57 46.77 10.59 2.5.59 4.15 2.99 3.8 5.53l-1.24 9.21c17.33 18.35 25.31 43.04 21.92 68.13-3.38 25.09-17.61 46.79-39.18 59.9l-2.37 17.58c-.19 1.4-.96 2.66-2.13 3.46-.84.57-1.82.87-2.82.87zm-35.9-166.02c-36.01 0-67.46 26.69-72.4 63.34-2.58 19.12 2.54 38.06 14.4 53.35 11.73 15.11 28.96 25.38 48.5 28.91 9.01 1.63 30.94 6.81 41.19 9.26l1.95-14.5c.21-1.55 1.13-2.91 2.48-3.68 20.04-11.39 33.3-31.01 36.38-53.81 3.07-22.8-4.52-45.22-20.83-61.52-1.1-1.1-1.63-2.66-1.42-4.21l.96-7.13c-16.47-3.88-38.45-8.97-41.4-9.37-3.3-.44-6.58-.66-9.82-.66z"/></g><g><circle cx="2015.94" cy="836.98" fill="#fff" r="78.11"/><path d="m2015.99 920.09c-3.68 0-7.41-.25-11.16-.75-22-2.97-41.53-14.32-54.99-31.97s-19.24-39.49-16.27-61.49 14.32-41.53 31.97-54.99 39.49-19.24 61.49-16.27c45.41 6.12 77.38 48.05 71.26 93.47-5.62 41.66-41.37 72.01-82.3 72.01zm-.21-156.23c-15.91 0-31.3 5.17-44.17 14.98-15.53 11.84-25.52 29.02-28.13 48.37s2.47 38.56 14.31 54.09 29.02 25.52 48.37 28.13c39.95 5.39 76.83-22.73 82.22-62.68s-22.73-76.83-62.68-82.22c-3.32-.45-6.63-.67-9.92-.67z"/></g><g><path d="m2512.17 1155.44c-71.06 65.96-98.27 119.87-89.73 200.12l71.72 33.93s27.22 80.66 42.48 104.34c12.24 19 62.18 65.62 62.18 65.62 16.67-2.37 23.25-10.28 26.81-19.83-16.53-32.89-30.5-66.48-40.14-101.26 0 0 59.7 32.87 63.49 35.45s53.64 49.82 79.2 67.22c25.26 17.2 71.87-23.49 89.63-54.91 27.17-48.06 43.6-97.44 43.6-97.44s-60.93-91.44-75.82-101.67c-25.23-17.33-130.45-48.21-140.43-50.93s-133-80.63-133-80.63z" fill="#45a2ff"/><path d="m2598.82 1564.44c-1.26 0-2.48-.48-3.41-1.35-2.06-1.92-50.53-47.27-62.97-66.56-14.24-22.09-37.91-90.49-42.33-103.43l-69.8-33.02c-1.58-.75-2.65-2.26-2.83-3.99-8.44-79.33 16.3-134.71 91.3-204.31 1.66-1.54 4.16-1.77 6.08-.56 46.97 29.75 124.26 77.78 131.66 80.04 1.09.3 114.61 32.86 141.92 51.63 15.24 10.47 70.85 93.58 77.14 103.02.85 1.28 1.07 2.89.58 4.35-.17.5-16.9 50.4-44 98.32-7.02 12.42-18.12 25.87-30.45 36.92-9.72 8.7-24.56 19.84-40.09 23.46-10.21 2.38-19.05 1.11-26.25-3.8-18.74-12.76-50.41-41.37-67.42-56.74-5.57-5.03-10.83-9.79-11.82-10.5-2.26-1.54-29.63-16.74-52.46-29.34 8.63 28.16 20.6 57.33 36.41 88.79.62 1.24.7 2.69.22 3.99-5.01 13.44-14.79 20.76-30.79 23.04-.24.03-.47.05-.71.05zm-171.69-212.19 69.17 32.72c1.23.58 2.17 1.64 2.6 2.92.27.8 27.2 80.35 41.94 103.23 10.49 16.27 50.66 54.55 59.61 63 7.81-1.4 15.3-4.5 19.69-14.29-17.75-35.59-30.67-68.37-39.47-100.14-.54-1.94.14-4.01 1.72-5.26s3.75-1.43 5.51-.46c6.13 3.38 60.02 33.06 63.89 35.7 1.23.84 4.15 3.46 12.86 11.33 16.83 15.21 48.16 43.52 66.34 55.9 4.8 3.27 10.97 4.05 18.35 2.33 23.27-5.43 51.4-33.07 64.11-55.56 23.32-41.26 38.84-84.02 42.42-94.26-24.38-36.48-62.97-91.3-73.11-98.26-23.81-16.36-125.3-46.52-138.91-50.23-9.73-2.66-104.61-62.42-131.1-79.17-69.25 65.07-92.71 117.28-85.63 190.52z"/></g><path d="m2774.76 1525.26c-1.38 0-2.74-.56-3.73-1.67l-82.61-92.58-57.09-25.89c-2.51-1.14-3.63-4.1-2.49-6.62 1.14-2.51 4.1-3.63 6.62-2.49l58.05 26.32c.63.29 1.2.7 1.67 1.22l83.32 93.37c1.84 2.06 1.66 5.22-.4 7.06-.95.85-2.14 1.27-3.33 1.27z"/><path d="m2831.26 1428.42c-1.39 0-2.77-.58-3.76-1.7l-77.48-88.22-45.13-24.96c-2.42-1.34-3.29-4.38-1.96-6.8 1.34-2.42 4.38-3.29 6.8-1.96l45.89 25.38c.5.28.96.64 1.34 1.08l78.06 88.88c1.82 2.07 1.62 5.23-.46 7.06-.95.83-2.13 1.24-3.3 1.24z"/><path d="m2809.63 1481.88c-1.41 0-2.81-.59-3.8-1.75l-78.63-91.85-57.62-30.64c-2.44-1.3-3.36-4.32-2.07-6.76 1.3-2.44 4.32-3.36 6.76-2.07l58.45 31.09c.55.29 1.04.69 1.45 1.16l79.25 92.57c1.8 2.1 1.55 5.25-.55 7.05-.94.81-2.1 1.2-3.25 1.2z"/><g><path d="m1014.49 711.99c71.38 65.62 142.59 93.92 221.91 79.06l12.83-79.63s78.26-33.52 100.65-50.61c17.97-13.71 60.49-67.18 60.49-67.18-3.69-16.43-12.09-22.36-21.89-25.15-31.48 19.08-54.86 32.28-88.77 44.64 0 0 19.05-58.72 21.32-62.71 2.27-3.98 40.65-73.85 55.98-100.71 15.14-26.55-55.64-64.76-88.37-79.98-50.06-23.28-115.14-34.13-128.09-25.03-23.36 16.41-45.9 87.26-52.01 101.65-11.96 28.18-22.26 116.53-24.18 126.69-1.93 10.16-69.85 138.97-69.85 138.97z" fill="#45a2ff"/><path d="m1195.45 799.95c-25.28 0-49.98-4.5-74.7-13.56-36.58-13.4-72.45-36.53-109.64-70.72-1.67-1.54-2.1-4.01-1.04-6.01 25.93-49.18 67.7-130.03 69.36-137.59.36-1.9 1.12-7.35 2.08-14.24 4.09-29.32 12.6-90.34 22.41-113.46 1.02-2.42 2.58-6.63 4.56-11.96 10.01-27.05 28.64-77.41 49.18-91.83 10.25-7.2 38.18-3.37 53.92-.45 26.79 4.98 55.64 14.1 79.16 25.04 8.95 4.16 32.01 15.33 52.75 29.08 22.35 14.82 35.61 28.38 39.41 40.29 2.02 6.34 1.5 12.27-1.56 17.62-11.05 19.37-34.4 61.67-46.95 84.4-5.05 9.14-8.38 15.18-9.03 16.32-1.48 2.89-10.6 30.22-17.68 51.86 29.65-11.65 51.49-24.36 78.19-40.55 1.19-.72 2.62-.91 3.96-.53 13.79 3.93 21.86 13.1 25.4 28.87.33 1.48-.02 3.02-.97 4.21-1.75 2.2-43.12 54.12-61.37 68.04-20.59 15.71-85.3 44.12-99.18 50.14l-12.39 76.92c-.34 2.08-1.94 3.73-4.02 4.12-14.19 2.66-28.12 3.99-41.87 3.99zm-174.73-89.05c35.19 31.86 69.07 53.5 103.47 66.1 35.35 12.95 70.66 16.14 107.84 9.75l12.26-76.14c.27-1.69 1.39-3.13 2.97-3.8.78-.33 77.94-33.47 99.58-49.99 15.39-11.75 50.36-54.82 58.08-64.42-2.02-7.67-5.7-14.9-15.81-18.49-29.12 17.62-52.85 31.19-87.71 43.88-1.79.65-3.81.23-5.18-1.1-1.38-1.33-1.87-3.32-1.28-5.14 4.51-13.89 19.39-59.53 21.73-63.64.61-1.08 4.12-7.42 8.96-16.19 12.56-22.75 35.94-65.09 47.02-84.52 1.63-2.86 1.87-6.01.72-9.63-6.34-19.89-50.75-46.55-86.85-63.34-54.44-25.31-114.03-31.85-123.11-25.47-17.99 12.63-36.61 62.94-45.55 87.12-2.02 5.46-3.61 9.77-4.73 12.4-9.29 21.9-17.68 82.03-21.71 110.93-1.06 7.57-1.75 12.57-2.16 14.74-1.88 9.91-53.93 109.21-68.54 136.95z"/></g><g><path d="m587.73 1063.26c-68.83 81.7-119.4 174.95-153.01 278.92 0 0-125.73-86.98-134.65-88.18s-68.19-4.01-114.62-15.45c-46.44-11.45-71.51-56.32-61.61-91.3 9.9-34.97 187.96-364.98 196.21-378.13 8.26-13.15 56.9 1.19 72.84 17.6s17.78 186.54 26.42 199.37c8.64 12.84 168.41 77.17 168.41 77.17z" fill="#45a2ff"/><path d="m434.71 1347.18c-1 0-2-.3-2.85-.89-46.81-32.38-123.97-84.56-132.66-87.36-1.76-.22-5.63-.53-10.49-.92-21.74-1.74-66.97-5.36-104.47-14.61-24.01-5.92-44.69-21.21-56.75-41.94-10.35-17.8-13.43-38.05-8.47-55.57 5.39-19.04 56.87-118.3 99.12-198.22 45.61-86.3 93.14-173.98 97.68-181.21 2.57-4.1 7.33-6.54 14.13-7.26 19.04-2.01 53.24 10.35 66.53 24.04 9.79 10.08 13.87 56.52 18.99 126.23 2.25 30.68 5.06 68.87 8.01 73.86 1.29 1.65 11.44 9.76 85.99 41.88 40.24 17.34 79.73 33.25 80.12 33.41 1.49.6 2.6 1.87 2.98 3.43.39 1.56 0 3.2-1.03 4.43-67.24 79.81-118.41 173.09-152.08 277.24-.49 1.5-1.66 2.69-3.15 3.2-.52.18-1.06.26-1.6.26zm-100.26-578.21c-1.22 0-2.37.06-3.46.17-3.44.36-5.88 1.32-6.71 2.63-10.35 16.48-186.2 343.49-195.64 376.84-4.23 14.93-1.49 32.35 7.5 47.82 10.7 18.41 29.11 31.99 50.49 37.26 36.72 9.05 81.4 12.63 102.88 14.35 5.6.45 9.3.74 11.22 1 2.35.32 6.73.91 72.79 45.35 24.22 16.29 48.06 32.67 58.52 39.87 33.33-100.54 82.91-190.96 147.45-268.95-12.93-5.26-43.66-17.85-74.71-31.24-83.39-35.96-87.75-42.43-89.62-45.2-3.97-5.9-5.9-27.38-9.67-78.68-1.87-25.51-4-54.42-6.74-77.36-4.06-33.88-7.96-41.1-9.45-42.64-10.44-10.75-38.14-21.23-54.85-21.23zm-35.06 489.98s0 0 0 0z"/></g><path d="m1150.98 517c-.42 0-.85-.05-1.27-.16-2.67-.7-4.27-3.43-3.57-6.1.38-1.47 9.48-36.14 15.88-54.72 6.43-18.68 48.02-104.49 49.79-108.13 1.21-2.48 4.2-3.52 6.68-2.32 2.48 1.21 3.52 4.2 2.32 6.68-.43.89-43.1 88.91-49.33 107.02-6.27 18.22-15.57 53.64-15.66 54-.59 2.25-2.62 3.73-4.83 3.73z"/><path d="m1203.92 538.42c-.44 0-.88-.06-1.32-.18-2.66-.73-4.23-3.48-3.51-6.14.44-1.62 10.88-39.82 17.27-58.37 6.43-18.68 48.02-104.49 49.79-108.13 1.21-2.48 4.2-3.52 6.68-2.32 2.48 1.21 3.52 4.2 2.32 6.68-.43.89-43.1 88.91-49.33 107.02-6.28 18.25-16.97 57.36-17.08 57.75-.61 2.22-2.62 3.68-4.82 3.68z"/><path d="m1261.5 557.85c-.44 0-.89-.06-1.33-.18-2.66-.74-4.22-3.49-3.49-6.15.08-.29 8.07-29.13 14.45-47.67 6.48-18.84 54.9-103.87 56.96-107.48 1.37-2.4 4.42-3.24 6.82-1.87s3.24 4.42 1.87 6.82c-.5.88-50.01 87.82-56.19 105.78-6.28 18.25-14.19 46.8-14.27 47.08-.61 2.22-2.62 3.67-4.82 3.67z"/></g><path d="m1059.82 1193.12c-.76 0-1.54-.18-2.27-.55-2.46-1.25-3.44-4.26-2.19-6.72.08-.16 8.27-16.62 11.13-43.96 2.63-25.2 1.14-65.09-20.93-112.03-22.08-46.97-61.01-74.97-89.79-90.19-31.28-16.54-57.46-21.95-57.72-22-2.71-.55-4.46-3.18-3.91-5.89s3.19-4.46 5.89-3.91c1.12.23 27.88 5.75 60.42 22.96 30.12 15.93 70.91 45.31 94.16 94.78 23.16 49.26 24.62 91.28 21.77 117.85-3.11 29.01-11.74 46.21-12.1 46.92-.88 1.73-2.64 2.73-4.46 2.73z"/><g><circle cx="884.14" cy="2515.53" fill="#bababa" r="122.66"/><path d="m884.23 2643.19c-5.66 0-11.38-.38-17.14-1.15-69.76-9.4-118.86-73.81-109.46-143.57s73.81-118.86 143.57-109.46c33.79 4.56 63.79 22 84.46 49.11 20.67 27.12 29.55 60.66 24.99 94.45-8.63 64-63.55 110.61-126.42 110.61zm-.17-245.33c-57.96 0-108.57 42.96-116.52 101.95-8.67 64.29 36.59 123.65 100.88 132.32 5.31.72 10.59 1.06 15.8 1.06 57.96 0 108.57-42.96 116.52-101.95 4.2-31.15-3.98-62.06-23.04-87.05s-46.7-41.07-77.85-45.27c-5.31-.72-10.59-1.06-15.8-1.06z"/></g><g><circle cx="884.14" cy="2515.53" fill="#393f4f" r="48.39"/><path d="m884.25 2568.93c-2.4 0-4.82-.16-7.24-.49-29.18-3.93-49.72-30.87-45.78-60.05 3.93-29.18 30.87-49.72 60.05-45.78 14.13 1.91 26.68 9.2 35.33 20.54s12.36 25.37 10.45 39.51c-1.91 14.13-9.2 26.68-20.54 35.33-9.4 7.17-20.64 10.94-32.26 10.94zm-.14-96.8c-21.38 0-40.04 15.84-42.98 37.6-3.2 23.71 13.49 45.61 37.21 48.8 11.49 1.55 22.89-1.47 32.11-8.5s15.15-17.22 16.7-28.71c1.55-11.49-1.47-22.89-8.5-32.11s-17.22-15.15-28.71-16.7c-1.96-.26-3.91-.39-5.83-.39z"/></g><g><circle cx="1313.62" cy="2573.43" fill="#bababa" r="122.66"/><path d="m1313.88 2701.11c-5.75 0-11.53-.39-17.32-1.17-69.76-9.41-118.86-73.81-109.46-143.57s73.82-118.86 143.57-109.46c69.76 9.4 118.86 73.81 109.46 143.57l-4.96-.67 4.96.67c-4.56 33.79-22 63.79-49.12 84.46-22.47 17.13-49.35 26.16-77.13 26.16zm-.35-245.35c-57.96 0-108.57 42.96-116.52 101.95-8.67 64.29 36.59 123.65 100.88 132.32 31.15 4.2 62.06-3.98 87.05-23.04 24.99-19.05 41.07-46.7 45.27-77.85 8.67-64.29-36.59-123.65-100.88-132.32-5.31-.72-10.59-1.06-15.8-1.06z"/></g><g><circle cx="1313.62" cy="2573.43" fill="#393f4f" r="48.39"/><path d="m1313.65 2626.82c-2.37 0-4.76-.16-7.17-.48-29.18-3.93-49.72-30.87-45.78-60.05s30.87-49.72 60.05-45.78c29.18 3.93 49.72 30.87 45.78 60.05-3.61 26.77-26.58 46.26-52.88 46.26zm-.07-96.8c-21.38 0-40.04 15.84-42.98 37.6-3.2 23.71 13.49 45.61 37.21 48.8 23.71 3.2 45.61-13.49 48.8-37.21 3.2-23.71-13.49-45.61-37.21-48.8-1.96-.26-3.91-.39-5.83-.39z"/></g><g><path d="m2165.85 1317.63c-6.21-16.62-24.73-25.05-41.34-18.84-66.56 24.88-119.65 52.19-162.33 83.48-49.31 36.16-85.82 77.95-111.3 127.49l-1312.55-176.95c-72.91-9.83-137.94 46.46-138.67 120.02l-3.01 304.26c-1.26 127.17 92.39 235.36 218.42 252.35l912.37 123c126.03 16.99 244.99-62.54 277.45-185.5l111.76-423.33c41.68-69.71 114.04-121.16 230.36-164.66 16.62-6.21 25.05-24.72 18.84-41.34zm-1497.83 634.13-44.37-5.98c-85.2-11.49-150.77-79.34-161.28-162.63l224.31 30.24-18.66 138.38zm27.24-202.05-233.98-31.54 1.41-142.06 251.4 33.89-18.84 139.71zm-231.93-238.35.57-57.89c.17-16.89 7.29-32.29 20.07-43.34 12.77-11.06 29.03-15.9 45.77-13.64l209.33 28.22-16.4 121.62-259.35-34.96zm558.94 488.16-290.58-39.18 18.66-138.38 290.58 39.18zm27.24-202.05-290.58-39.18 18.84-139.71 290.58 39.18zm-263.16-242.56 16.4-121.62 290.58 39.18-16.4 121.62zm608.27 494.81-308.68-41.61 18.66-138.38 308.68 41.61zm27.24-202.05-308.68-41.61 18.84-139.71 308.68 41.61zm-281.26-245 16.4-121.62 308.68 41.61-16.4 121.62zm395.41 466.11-77.72-10.48 18.66-138.38 257.65 34.74c-32.2 77.53-113.39 125.6-198.59 114.12zm216.84-176.49-267.32-36.04 18.84-139.71 284.75 38.39-36.26 137.36zm52.79-199.97-292.69-39.46 16.4-121.62 307.86 41.51z" fill="#fff"/><path d="m1561.17 2139.72c-11.45 0-22.94-.76-34.41-2.31l-912.37-123c-62.16-8.38-119.01-39.12-160.06-86.54-41.05-47.43-63.32-108.09-62.7-170.81l3.01-304.26c.36-36.5 16.4-71.13 44-95.02s64.17-34.79 100.34-29.91l1309.07 176.48c25.78-48.9 62.17-90.18 111.16-126.1 43.05-31.57 96.54-59.09 163.53-84.14 9.29-3.47 19.37-3.12 28.39.99s15.91 11.49 19.38 20.78c7.17 19.18-2.6 40.61-21.77 47.78-58.39 21.83-104.84 45.34-142.02 71.88-36.88 26.33-64.84 55.79-85.44 90.05l-111.58 422.64c-16.01 60.65-53.55 113.25-105.69 148.11-42.52 28.43-92.24 43.38-142.85 43.38zm-1039.17-803.01c-28.03 0-55.36 10.05-76.8 28.62-25.43 22.01-40.21 53.92-40.54 87.56l-3.01 304.26c-.6 60.28 20.8 118.59 60.26 164.17s94.09 75.12 153.83 83.18l912.37 123c59.74 8.05 120.25-5.96 170.37-39.47s86.19-84.06 101.58-142.35l111.76-423.33c.12-.45.3-.89.54-1.29 21.36-35.72 50.33-66.36 88.58-93.66 37.9-27.05 85.11-50.97 144.33-73.11 14.01-5.24 21.14-20.9 15.91-34.91-2.54-6.79-7.57-12.18-14.16-15.18s-13.96-3.26-20.75-.72c-66.12 24.72-118.82 51.81-161.12 82.83-48.75 35.75-84.67 76.88-109.81 125.74-.97 1.88-3.02 2.95-5.11 2.67l-1312.55-176.95c-5.22-.7-10.46-1.05-15.66-1.05zm1039.13 738.75c-8.54 0-17.14-.57-25.78-1.73l-77.72-10.48c-1.31-.18-2.5-.87-3.31-1.92-.8-1.05-1.16-2.39-.98-3.7l18.66-138.38c.37-2.74 2.89-4.66 5.62-4.29l257.65 34.74c1.54.21 2.89 1.12 3.67 2.46.77 1.35.88 2.98.28 4.41-30.15 72.6-101.1 118.89-178.1 118.89zm-24.44-11.64c79.9 10.77 157.36-32.24 190.69-105.09l-246.14-33.18-17.32 128.47 72.76 9.81zm-142.05-9.11c-.22 0-.45-.01-.67-.05l-308.67-41.61c-2.74-.37-4.66-2.89-4.29-5.62l18.66-138.38c.18-1.31.87-2.5 1.92-3.31 1.05-.8 2.39-1.16 3.7-.98l308.68 41.61c1.31.18 2.5.87 3.31 1.92.8 1.05 1.16 2.39.98 3.7l-18.66 138.38c-.34 2.51-2.48 4.33-4.95 4.33zm-303.06-50.9 298.76 40.28 17.32-128.47-298.77-40.28-17.32 128.47zm-69.29.7c-.22 0-.45-.01-.67-.05l-290.58-39.18c-1.31-.18-2.5-.87-3.31-1.92-.8-1.05-1.16-2.39-.98-3.7l18.66-138.38c.37-2.74 2.89-4.66 5.62-4.29l290.58 39.18c1.31.18 2.5.87 3.31 1.92.8 1.05 1.16 2.39.98 3.7l-18.66 138.38c-.34 2.51-2.48 4.33-4.95 4.33zm-284.96-48.46 280.67 37.84 17.32-128.47-280.67-37.84zm-69.3.7c-.22 0-.45-.01-.67-.04l-44.37-5.98c-86.55-11.67-154.64-80.33-165.57-166.96-.19-1.54.34-3.08 1.44-4.18 1.1-1.09 2.65-1.61 4.19-1.4l224.31 30.24c2.74.37 4.66 2.89 4.29 5.62l-18.66 138.38c-.18 1.31-.87 2.5-1.92 3.31-.88.67-1.94 1.02-3.03 1.02zm-199.76-167.78c12.85 79.08 76.16 141.07 156.05 151.84l39.42 5.31 17.32-128.47-212.79-28.69zm1284.6 108.31c-.22 0-.45-.01-.67-.05l-267.32-36.04c-1.31-.18-2.5-.87-3.31-1.92-.8-1.05-1.16-2.39-.98-3.7l18.84-139.71c.37-2.74 2.89-4.65 5.62-4.29l284.75 38.39c1.42.19 2.69.98 3.49 2.18.8 1.19 1.04 2.67.68 4.06l-36.26 137.36c-.59 2.22-2.59 3.72-4.83 3.72zm-261.7-45.33 257.99 34.78 33.69-127.62-274.18-36.96zm-69.29.7c-.22 0-.45-.01-.67-.05l-308.68-41.61c-1.31-.18-2.5-.87-3.31-1.92-.8-1.05-1.16-2.39-.98-3.7l18.84-139.71c.37-2.74 2.89-4.66 5.62-4.29l308.68 41.61c1.31.18 2.5.87 3.31 1.92.8 1.05 1.16 2.39.98 3.7l-18.84 139.71c-.34 2.51-2.48 4.33-4.95 4.33zm-303.06-50.9 298.77 40.28 17.5-129.8-298.77-40.28zm-69.3.7c-.22 0-.45-.01-.67-.04l-290.58-39.18c-1.31-.18-2.5-.87-3.31-1.92-.8-1.05-1.16-2.39-.98-3.7l18.84-139.71c.37-2.74 2.89-4.66 5.62-4.29l290.58 39.18c2.74.37 4.66 2.89 4.29 5.62l-18.83 139.71c-.18 1.31-.87 2.5-1.92 3.31-.88.67-1.94 1.02-3.03 1.02zm-284.96-48.46 280.67 37.84 17.5-129.8-280.67-37.84zm-69.29.7c-.22 0-.45-.01-.67-.05l-233.98-31.54c-2.5-.34-4.36-2.48-4.33-5l1.41-142.06c.01-1.43.64-2.79 1.73-3.73s2.52-1.37 3.94-1.17l251.4 33.89c1.31.18 2.5.87 3.31 1.92.8 1.05 1.16 2.39.98 3.7l-18.84 139.71c-.34 2.51-2.48 4.33-4.95 4.33zm-228.94-40.91 224.64 30.29 17.5-129.8-240.84-32.47-1.31 131.98zm1339.33-16.47c-.22 0-.45-.01-.67-.05l-292.69-39.46c-1.31-.18-2.5-.87-3.31-1.92-.8-1.05-1.16-2.39-.98-3.7l16.4-121.62c.18-1.31.87-2.5 1.92-3.31 1.05-.8 2.38-1.16 3.7-.98l307.86 41.51c1.42.19 2.69.98 3.49 2.18.8 1.19 1.04 2.67.68 4.06l-31.57 119.57c-.59 2.22-2.59 3.72-4.83 3.72zm-287.07-48.75 283.36 38.2 28.99-109.83-297.3-40.08-15.06 111.71zm-69.29.7c-.22 0-.45-.01-.67-.05l-308.68-41.61c-1.31-.18-2.5-.87-3.31-1.92-.8-1.05-1.16-2.39-.98-3.7l16.4-121.62c.37-2.74 2.89-4.66 5.62-4.29l308.68 41.61c1.31.18 2.5.87 3.31 1.92.8 1.05 1.16 2.39.98 3.7l-16.4 121.62c-.34 2.51-2.48 4.33-4.95 4.33zm-303.06-50.9 298.77 40.28 15.06-111.71-298.77-40.28zm-69.29.7c-.22 0-.45-.01-.67-.05l-290.58-39.18c-1.31-.18-2.5-.87-3.31-1.92-.8-1.05-1.16-2.39-.98-3.7l16.4-121.62c.37-2.74 2.89-4.66 5.62-4.29l290.58 39.18c1.31.18 2.5.87 3.31 1.92.8 1.05 1.16 2.39.98 3.7l-16.4 121.62c-.34 2.51-2.48 4.33-4.95 4.33zm-284.96-48.46 280.67 37.84 15.06-111.71-280.67-37.84zm-69.29.7c-.22 0-.45-.01-.67-.05l-259.35-34.96c-2.5-.34-4.36-2.48-4.33-5l.57-57.89c.18-18.35 7.92-35.06 21.79-47.07s31.53-17.27 49.71-14.82l209.33 28.22c1.31.18 2.5.87 3.31 1.92.8 1.05 1.16 2.39.98 3.7l-16.4 121.62c-.34 2.51-2.48 4.33-4.95 4.33zm-254.31-44.33 250.02 33.71 15.06-111.71-204.38-27.55c-15.3-2.06-30.16 2.37-41.83 12.47s-18.19 24.17-18.34 39.61z"/></g><g><rect fill="#bababa" height="100.18" rx="32.24" transform="matrix(.991 .134 -.134 .991 197.34 -284.46)" width="145.53" x="2145.39" y="1278.05"/><path d="m2256.01 1388.5c-1.68 0-3.36-.11-5.05-.34l-80.33-10.83c-20.35-2.74-34.67-21.53-31.93-41.88l4.77-35.39c1.33-9.86 6.42-18.61 14.33-24.64s17.7-8.62 27.55-7.29l80.33 10.83c9.86 1.33 18.61 6.42 24.64 14.33s8.62 17.69 7.29 27.55l-4.77 35.39c-1.33 9.86-6.42 18.61-14.33 24.64-6.55 5-14.4 7.63-22.5 7.63zm-3.72-10.25c7.21.97 14.37-.92 20.15-5.33 5.79-4.41 9.51-10.81 10.48-18.02l4.77-35.39c.97-7.21-.92-14.37-5.33-20.15-4.41-5.79-10.81-9.51-18.02-10.48l-80.33-10.83c-7.21-.97-14.37.92-20.15 5.33-5.79 4.41-9.51 10.81-10.48 18.02l-4.77 35.39c-2.01 14.88 8.47 28.62 23.35 30.63z"/></g><g><path d="m535.72 1424.18 57.7 6.38c17.41 1.93 33.18-10.39 35.52-27.76l6.79-50.4c2.38-17.66-10-33.9-27.66-36.28l-147.05-19.83c-44.4-5.99-84.61 26.83-87.65 71.53l-10.55 155.17c-1.19 17.47 11.78 32.7 29.21 34.31l62.86 5.82c17.35 1.61 32.84-10.85 34.99-28.15l10.28-82.72c2.18-17.51 18.02-30.03 35.56-28.09z" fill="#bababa"/><path d="m457.97 1568.28c-1.17 0-2.35-.05-3.54-.16l-62.86-5.82c-20.3-1.88-35.12-19.29-33.74-39.63l10.55-155.17c1.56-23.02 12.27-43.72 30.14-58.31 17.87-14.58 40.3-20.92 63.17-17.84l147.05 19.83c9.86 1.33 18.62 6.42 24.65 14.34s8.63 17.71 7.3 27.57l-6.79 50.4c-2.53 18.8-18.29 32.29-36.79 32.29-1.4 0-2.81-.08-4.24-.23l-57.7-6.39c-14.74-1.63-28.22 9.02-30.05 23.74l-10.28 82.72c-2.35 18.91-18.21 32.67-36.88 32.67zm-7.53-267.7c-16.58 0-32.48 5.65-45.59 16.34-15.71 12.82-25.11 31.01-26.49 51.24l-10.55 155.17c-1.01 14.88 9.83 27.62 24.68 28.99l62.86 5.82c14.76 1.37 27.74-9.08 29.57-23.78l10.28-82.72c2.5-20.12 20.93-34.67 41.08-32.44l57.7 6.39c14.84 1.64 28.02-8.66 30.02-23.45l6.79-50.4c.97-7.22-.92-14.38-5.34-20.17s-10.82-9.52-18.04-10.49l-147.05-19.83c-3.32-.45-6.63-.67-9.92-.67z"/></g><g><path d="m1510.15 2476.16-896.53-120.87c-17.58-2.37-29.92-18.55-27.55-36.13s18.55-29.92 36.13-27.55l872.61 117.64c12.59-33.67 14.33-67.36 5.39-102.38-9.98-39.09-33.8-80.36-70.84-122.81l-763.45-102.93c-17.58-2.37-29.92-18.55-27.55-36.13s18.55-29.92 36.13-27.55l775.22 104.51c7.48 1.01 14.37 4.62 19.45 10.2 101.97 111.89 126.85 221.78 73.96 326.61-6.17 12.22-19.41 19.2-32.97 17.37z" fill="#fff"/><path d="m1514.45 2481.44c-1.65 0-3.3-.11-4.96-.33l-896.53-120.87c-9.83-1.32-18.55-6.4-24.56-14.28-6.01-7.89-8.59-17.64-7.27-27.47 2.74-20.29 21.47-34.57 41.75-31.83l868.61 117.1c11-31.47 12.26-62.8 3.87-95.65-9.67-37.86-32.72-78-68.53-119.34l-761.58-102.67c-20.29-2.74-34.57-21.47-31.83-41.75 2.73-20.29 21.46-34.57 41.75-31.83l775.22 104.51c8.63 1.16 16.61 5.35 22.48 11.79 103.51 113.58 128.65 225.36 74.72 332.23-6.37 12.62-19.28 20.4-33.14 20.4zm-896.56-185.12c-13.36 0-25.03 9.9-26.86 23.5-.97 7.18.92 14.31 5.31 20.07s10.77 9.47 17.95 10.44l896.53 120.87c11.45 1.54 22.64-4.35 27.84-14.66 51.87-102.79 27.24-210.79-73.19-320.99-4.29-4.7-10.12-7.76-16.42-8.61l-775.22-104.51c-14.81-1.99-28.51 8.44-30.51 23.26s8.44 28.51 23.26 30.51l763.45 102.93c1.2.16 2.3.75 3.1 1.67 37.55 43.03 61.75 85.04 71.92 124.86 9.24 36.19 7.43 70.66-5.55 105.37-.82 2.19-3.04 3.52-5.35 3.2l-872.61-117.64c-1.22-.16-2.44-.25-3.64-.25z"/></g><g><path d="m587.57 2260.44h105.39c9.77 0 17.71 7.94 17.71 17.71v77.93c0 9.77-7.94 17.71-17.71 17.71h-105.39c-24.34 0-44.1-19.76-44.1-44.1v-25.14c0-24.34 19.76-44.1 44.1-44.1z" fill="#bababa" transform="matrix(.991 .134 -.134 .991 315.21 -63.01)"/><path d="m687.22 2387.25c-1.02 0-2.05-.07-3.08-.21l-104.45-14.08c-13-1.75-24.54-8.46-32.49-18.89s-11.37-23.33-9.61-36.33l3.36-24.92c1.75-13 8.46-24.54 18.89-32.49s23.33-11.37 36.33-9.61l104.45 14.08c6.01.81 11.35 3.91 15.03 8.74s5.26 10.79 4.45 16.8l-10.41 77.23c-.81 6.01-3.91 11.35-8.74 15.03-4 3.05-8.78 4.65-13.72 4.65zm-97.69-126.98c-8.51 0-16.74 2.77-23.63 8.01-8.31 6.33-13.65 15.52-15.04 25.87l-3.36 24.92c-1.4 10.35 1.32 20.63 7.66 28.93 6.33 8.31 15.52 13.65 25.87 15.04l104.45 14.08c3.37.45 6.7-.43 9.4-2.49s4.44-5.05 4.89-8.41l10.41-77.23c.45-3.36-.43-6.7-2.49-9.4s-5.04-4.44-8.41-4.89l-104.45-14.08c-1.77-.24-3.55-.36-5.31-.36z"/></g></svg>